<svg xmlns="http://www.w3.org/2000/svg" xmlns:xlink="http://www.w3.org/1999/xlink" viewBox="0 0 199.07 205.66">
  <defs>
    <style>
      .cls-1 {
        fill: url(#linear-gradient);
      }

      .cls-2 {
        fill: url(#linear-gradient-3);
      }

      .cls-3 {
        fill: url(#linear-gradient-4);
      }

      .cls-4 {
        fill: url(#linear-gradient-2);
      }

      .cls-5 {
        fill: url(#linear-gradient-5);
      }
    </style>
    <linearGradient id="linear-gradient" x1="20.28" y1="214.84" x2="152.58" y2="-17.08" gradientTransform="translate(0 208) scale(1 -1)" gradientUnits="userSpaceOnUse">
      <stop offset="0" stop-color="#fc466b"/>
      <stop offset="1" stop-color="#3f5efb"/>
    </linearGradient>
    <linearGradient id="linear-gradient-2" x1="3.73" y1="205.4" x2="136.03" y2="-26.52" gradientTransform="translate(0 208) scale(1 -1)" gradientUnits="userSpaceOnUse">
      <stop offset="0" stop-color="#fc466b"/>
      <stop offset="1" stop-color="#3f5efb"/>
    </linearGradient>
    <linearGradient id="linear-gradient-3" x1="-11.51" y1="196.7" x2="120.79" y2="-35.21" gradientTransform="translate(0 208) scale(1 -1)" gradientUnits="userSpaceOnUse">
      <stop offset="0" stop-color="#fc466b"/>
      <stop offset="1" stop-color="#3f5efb"/>
    </linearGradient>
    <linearGradient id="linear-gradient-4" x1="26.57" y1="218.43" x2="158.87" y2="-13.49" gradientTransform="translate(0 208) scale(1 -1)" gradientUnits="userSpaceOnUse">
      <stop offset="0" stop-color="#fc466b"/>
      <stop offset="1" stop-color="#3f5efb"/>
    </linearGradient>
    <linearGradient id="linear-gradient-5" x1="81.83" y1="249.95" x2="214.13" y2="18.03" gradientTransform="translate(0 208) scale(1 -1)" gradientUnits="userSpaceOnUse">
      <stop offset="0" stop-color="#fc466b"/>
      <stop offset="1" stop-color="#3f5efb"/>
    </linearGradient>
  </defs>
  <path class="cls-1" d="M48.36,71.02c14.39,3.82,27.21,9.94,38.12,18.2,.48,.36,1.04,.54,1.59,.54,.8,0,1.59-.36,2.11-1.05,.88-1.16,.65-2.82-.51-3.7-11.46-8.68-24.9-15.1-39.96-19.09-1.41-.37-2.86,.47-3.23,1.88-.37,1.4,.47,2.84,1.88,3.22Z"/>
  <path class="cls-4" d="M38.71,89.66c12.03,3.16,23.01,7.96,32.65,14.24,.45,.29,.95,.43,1.44,.43,.86,0,1.71-.42,2.21-1.2,.8-1.22,.45-2.86-.77-3.66-10.11-6.6-21.62-11.62-34.19-14.93-1.41-.37-2.85,.47-3.23,1.88-.36,1.43,.48,2.87,1.89,3.24Z"/>
  <path class="cls-2" d="M62.82,116.37c-9.46-5.84-20.11-10.35-31.64-13.41-1.41-.37-2.86,.46-3.23,1.87-.37,1.41,.46,2.86,1.87,3.23,11.03,2.93,21.2,7.24,30.22,12.8,.43,.27,.91,.39,1.38,.39,.89,0,1.75-.45,2.25-1.25,.78-1.24,.39-2.87-.85-3.63Z"/>
  <path class="cls-3" d="M198.76,120.53c-6.42-12.08-16.21-22.38-28.32-29.77-.2-.12-.4-.24-.61-.36,.19-15.84-10.15-29.72-25.54-34.03-4.84-1.36-9.8-1.66-14.74-.9-1.44,.22-2.43,1.57-2.21,3.01s1.57,2.43,3.01,2.21c4.19-.65,8.4-.39,12.51,.76,12.12,3.39,20.55,13.77,21.58,25.98-14.87-7.46-31.36-10.01-47.09-7.17-1.43,.26-2.85,.56-4.24,.91C94.8,49.03,70.68,21.89,41.38,.51c-.63-.46-1.44-.62-2.2-.43-.76,.19-1.4,.71-1.74,1.42L.26,78.69c-.55,1.15-.21,2.53,.82,3.28,6.74,4.92,13.3,10.24,19.53,15.84l-13.01,27.15c-.36,.74-.34,1.61,.03,2.34,.38,.73,1.07,1.25,1.88,1.4,25.21,4.55,45.83,15.33,61.3,32.02,5.47,15.61,16.68,29.96,32.63,39.71,3.07,1.87,6.27,3.55,9.52,4.98h.01s.04,.02,.07,.03c.1,.05,.21,.07,.32,.1,.06,.02,.12,.05,.19,.06,.19,.04,.37,.06,.56,.06,.14,0,.27,0,.41-.03,.05,0,.09-.02,.14-.03,.09-.02,.17-.04,.25-.06,.05-.02,.11-.04,.16-.06,.08-.03,.15-.06,.22-.1,.05-.02,.1-.05,.15-.08,.08-.05,.15-.1,.23-.15,.03-.02,.05-.03,.08-.05,.01,0,.02-.02,.03-.03,.12-.1,.24-.21,.35-.33,.01-.02,.02-.03,.04-.05,.08-.1,.16-.21,.23-.33,.03-.05,.05-.09,.08-.14,.02-.04,.05-.08,.07-.13,.02-.04,.02-.08,.04-.12,.03-.09,.06-.18,.09-.27,.02-.08,.04-.16,.05-.24s.02-.17,.03-.25c.01-.09,.01-.17,.01-.26,0-.08-.01-.17-.02-.25-.01-.08-.02-.17-.04-.25-.02-.08-.04-.17-.07-.25l-.09-.24c-.03-.08-.07-.15-.11-.22-.05-.08-.1-.16-.15-.24-.02-.03-.04-.07-.07-.11-18.73-23.87-21.64-54.35-7.41-77.64,11.33-18.54,32.15-29.83,55.79-30.29,1.05,.58,2.09,1.18,3.12,1.81,11.3,6.9,20.43,16.5,26.41,27.74,.68,1.29,2.28,1.78,3.57,1.09,1.25-.68,1.74-2.28,1.06-3.57ZM5.97,79.01L40.81,6.66c22.73,17.03,42.2,37.65,58.1,61.5-14.24-10.96-31.46-18.32-51.44-21.93-1.17-.21-2.34,.39-2.85,1.46l-21.64,45.17c-5.46-4.85-11.16-9.5-17.01-13.85Zm7.88,45.15L48.51,51.8c24.05,4.7,43.79,15.15,58.78,31.08-13.45,4.63-24.51,13.35-31.75,25.2-7.92,12.97-10.14,28-7.42,42.57-14.59-13.18-32.79-22.08-54.27-26.49Zm90.42-3.16c-13.65,22.35-12.78,50.71,1.62,74.72-31.13-19.23-42.73-57.23-25.84-84.88,8.18-13.39,21.76-22.4,38.25-25.37,12.07-2.17,24.63-.93,36.44,3.49-21.38,3.02-39.79,14.55-50.47,32.04Z"/>
  <circle class="cls-5" cx="146.65" cy="71.68" r="3.82"/>
</svg>