<?xml version="1.0" encoding="utf-8"?>
<!-- Generator: Adobe Illustrator 27.0.0, SVG Export Plug-In . SVG Version: 6.00 Build 0)  -->
<svg version="1.1" id="Layer_1" xmlns="http://www.w3.org/2000/svg" xmlns:xlink="http://www.w3.org/1999/xlink" x="0px" y="0px"
	 viewBox="0 0 199.07 205.67" style="enable-background:new 0 0 199.07 205.67;" xml:space="preserve">
<style type="text/css">
	.st0{fill:url(#SVGID_1_);}
	.st1{fill:url(#SVGID_00000165952268531480840030000014317281715098108291_);}
	.st2{fill:url(#SVGID_00000013166566044850599770000017244530879829521545_);}
	.st3{fill:url(#SVGID_00000161599732366755229300000008937885121310006175_);}
	.st4{fill:url(#SVGID_00000066517314664233724520000015194142196838273699_);}
</style>
<g>
	<linearGradient id="SVGID_1_" gradientUnits="userSpaceOnUse" x1="20.2792" y1="-6.8409" x2="152.5802" y2="225.0746">
		<stop  offset="0" style="stop-color:#FC466B"/>
		<stop  offset="1" style="stop-color:#3F5EFB"/>
	</linearGradient>
	<path class="st0" d="M48.36,71.02c14.39,3.82,27.21,9.94,38.12,18.2c0.48,0.36,1.04,0.54,1.59,0.54c0.8,0,1.59-0.36,2.11-1.05
		c0.88-1.16,0.65-2.82-0.51-3.7c-11.46-8.68-24.9-15.1-39.96-19.09c-1.41-0.37-2.86,0.47-3.23,1.88
		C46.11,69.2,46.95,70.64,48.36,71.02z"/>
	
		<linearGradient id="SVGID_00000009569261139351179100000016262278735028922528_" gradientUnits="userSpaceOnUse" x1="3.7286" y1="2.6007" x2="136.0297" y2="234.5163">
		<stop  offset="0" style="stop-color:#FC466B"/>
		<stop  offset="1" style="stop-color:#3F5EFB"/>
	</linearGradient>
	<path style="fill:url(#SVGID_00000009569261139351179100000016262278735028922528_);" d="M38.71,89.66
		c12.03,3.16,23.01,7.96,32.65,14.24c0.45,0.29,0.95,0.43,1.44,0.43c0.86,0,1.71-0.42,2.21-1.2c0.8-1.22,0.45-2.86-0.77-3.66
		c-10.11-6.6-21.62-11.62-34.19-14.93c-1.41-0.37-2.85,0.47-3.23,1.88C36.46,87.85,37.3,89.29,38.71,89.66z"/>
	
		<linearGradient id="SVGID_00000075156555791455164830000016067617386277171640_" gradientUnits="userSpaceOnUse" x1="-11.5126" y1="11.2955" x2="120.7883" y2="243.2108">
		<stop  offset="0" style="stop-color:#FC466B"/>
		<stop  offset="1" style="stop-color:#3F5EFB"/>
	</linearGradient>
	<path style="fill:url(#SVGID_00000075156555791455164830000016067617386277171640_);" d="M62.82,116.37
		c-9.46-5.84-20.11-10.35-31.64-13.41c-1.41-0.37-2.86,0.46-3.23,1.87c-0.37,1.41,0.46,2.86,1.87,3.23
		c11.03,2.93,21.2,7.24,30.22,12.8c0.43,0.27,0.91,0.39,1.38,0.39c0.89,0,1.75-0.45,2.25-1.25
		C64.45,118.76,64.06,117.13,62.82,116.37z"/>
	
		<linearGradient id="SVGID_00000110443981085652693210000008221850033180176567_" gradientUnits="userSpaceOnUse" x1="26.5723" y1="-10.4307" x2="158.8731" y2="221.4843">
		<stop  offset="0" style="stop-color:#FC466B"/>
		<stop  offset="1" style="stop-color:#3F5EFB"/>
	</linearGradient>
	<path style="fill:url(#SVGID_00000110443981085652693210000008221850033180176567_);" d="M198.76,120.53
		c-6.42-12.08-16.21-22.38-28.32-29.77c-0.2-0.12-0.4-0.24-0.61-0.36c0.19-15.84-10.15-29.72-25.54-34.03
		c-4.84-1.36-9.8-1.66-14.74-0.9c-1.44,0.22-2.43,1.57-2.21,3.01c0.22,1.44,1.57,2.43,3.01,2.21c4.19-0.65,8.4-0.39,12.51,0.76
		c12.12,3.39,20.55,13.77,21.58,25.98c-14.87-7.46-31.36-10.01-47.09-7.17c-1.43,0.26-2.85,0.56-4.24,0.91
		C94.8,49.03,70.68,21.89,41.38,0.51c-0.63-0.46-1.44-0.62-2.2-0.43c-0.76,0.19-1.4,0.71-1.74,1.42L0.26,78.69
		c-0.55,1.15-0.21,2.53,0.82,3.28c6.74,4.92,13.3,10.24,19.53,15.84L7.6,124.96c-0.36,0.74-0.34,1.61,0.03,2.34
		c0.38,0.73,1.07,1.25,1.88,1.4c25.21,4.55,45.83,15.33,61.3,32.02c5.47,15.61,16.68,29.96,32.63,39.71
		c3.07,1.87,6.27,3.55,9.52,4.98c0,0,0.01,0,0.01,0c0.02,0.01,0.04,0.02,0.07,0.03c0.1,0.05,0.21,0.07,0.32,0.1
		c0.06,0.02,0.12,0.05,0.19,0.06c0.19,0.04,0.37,0.06,0.56,0.06c0.14,0,0.27-0.01,0.41-0.03c0.05-0.01,0.09-0.02,0.14-0.03
		c0.09-0.02,0.17-0.04,0.25-0.06c0.05-0.02,0.11-0.04,0.16-0.06c0.08-0.03,0.15-0.06,0.22-0.1c0.05-0.02,0.1-0.05,0.15-0.08
		c0.08-0.05,0.15-0.1,0.23-0.15c0.03-0.02,0.05-0.03,0.08-0.05c0.01-0.01,0.02-0.02,0.03-0.03c0.12-0.1,0.24-0.21,0.35-0.33
		c0.01-0.02,0.02-0.03,0.04-0.05c0.08-0.1,0.16-0.21,0.23-0.33c0.03-0.05,0.05-0.09,0.08-0.14c0.02-0.04,0.05-0.08,0.07-0.13
		c0.02-0.04,0.02-0.08,0.04-0.12c0.03-0.09,0.06-0.18,0.09-0.27c0.02-0.08,0.04-0.16,0.05-0.24c0.01-0.08,0.02-0.17,0.03-0.25
		c0.01-0.09,0.01-0.17,0.01-0.26c0-0.08-0.01-0.17-0.02-0.25c-0.01-0.08-0.02-0.17-0.04-0.25c-0.02-0.08-0.04-0.17-0.07-0.25
		c-0.03-0.08-0.06-0.16-0.09-0.24c-0.03-0.08-0.07-0.15-0.11-0.22c-0.05-0.08-0.1-0.16-0.15-0.24c-0.02-0.03-0.04-0.07-0.07-0.11
		c-18.73-23.87-21.64-54.35-7.41-77.64c11.33-18.54,32.15-29.83,55.79-30.29c1.05,0.58,2.09,1.18,3.12,1.81
		c11.3,6.9,20.43,16.5,26.41,27.74c0.68,1.29,2.28,1.78,3.57,1.09C198.95,123.42,199.44,121.82,198.76,120.53z M5.97,79.01
		L40.81,6.66c22.73,17.03,42.2,37.65,58.1,61.5C84.67,57.2,67.45,49.84,47.47,46.23c-1.17-0.21-2.34,0.39-2.85,1.46L22.98,92.86
		C17.52,88.01,11.82,83.36,5.97,79.01z M13.85,124.16L48.51,51.8c24.05,4.7,43.79,15.15,58.78,31.08
		c-13.45,4.63-24.51,13.35-31.75,25.2c-7.92,12.97-10.14,28-7.42,42.57C53.53,137.47,35.33,128.57,13.85,124.16z M104.27,121
		c-13.65,22.35-12.78,50.71,1.62,74.72c-31.13-19.23-42.73-57.23-25.84-84.88c8.18-13.39,21.76-22.4,38.25-25.37
		c12.07-2.17,24.63-0.93,36.44,3.49C133.36,91.98,114.95,103.51,104.27,121z"/>
	
		<linearGradient id="SVGID_00000178162656756950442680000003360340738701500582_" gradientUnits="userSpaceOnUse" x1="81.8296" y1="-41.9529" x2="214.1303" y2="189.9619">
		<stop  offset="0" style="stop-color:#FC466B"/>
		<stop  offset="1" style="stop-color:#3F5EFB"/>
	</linearGradient>
	<circle style="fill:url(#SVGID_00000178162656756950442680000003360340738701500582_);" cx="146.65" cy="71.68" r="3.82"/>
</g>
</svg>
