
<svg xmlns="http://www.w3.org/2000/svg" width="200" height="36" viewBox="0 0 200 36" fill="none">
<path d="M128.834 23.0069V26.0296H116.299V9.23682H119.658V23.0069H128.834Z" fill="#fff"/>
<path d="M45.3403 9.23682V26.0296H53.7367C55.9635 26.0296 58.0992 25.1449 59.6738 23.5703C61.2484 21.9957 62.1331 19.86 62.1331 17.6332V17.6332C62.1331 15.4063 61.2484 13.2707 59.6738 11.6961C58.0992 10.1214 55.9635 9.23682 53.7367 9.23682H45.3403ZM53.175 22.6769H48.6938V12.5903H53.1725C54.5086 12.5903 55.79 13.1211 56.7347 14.0659C57.6795 15.0106 58.2103 16.292 58.2103 17.6281V17.6281C58.2103 18.9643 57.6795 20.2457 56.7347 21.1904C55.79 22.1352 54.5086 22.666 53.1725 22.666V22.666L53.175 22.6769Z" fill="#fff"/>
<path d="M199.96 16.8098C199.755 14.7069 198.776 12.7553 197.212 11.3343C195.648 9.91339 193.612 9.12458 191.499 9.12122C191.223 9.12122 190.944 9.13549 190.666 9.16236C188.703 9.35303 186.867 10.22 185.472 11.615C184.077 13.0099 183.21 14.8462 183.019 16.8098C182.991 17.0936 182.979 17.3631 182.979 17.6335C182.98 19.5366 183.618 21.3845 184.793 22.882C185.967 24.3795 187.61 25.4402 189.458 25.8946C191.306 26.349 193.253 26.1709 194.988 25.3887C196.723 24.6065 198.146 23.2655 199.029 21.5798H195.108C194.194 22.5293 192.943 23.0812 191.626 23.1162C190.308 23.1513 189.029 22.6666 188.066 21.767C187.982 21.6889 187.902 21.6083 187.827 21.5277C187.348 21.026 186.968 20.4383 186.707 19.7955L186.614 19.5646H199.779C199.926 18.9314 200 18.2835 200 17.6335C200.002 17.3597 199.986 17.0835 199.96 16.8098ZM196.466 16.9609H186.326L186.347 16.7753C186.481 15.5063 187.08 14.3317 188.028 13.4776C188.977 12.6236 190.207 12.1503 191.483 12.1489C191.668 12.1488 191.852 12.1584 192.035 12.1775C193.212 12.3024 194.31 12.827 195.147 13.6637C195.983 14.5004 196.508 15.5987 196.633 16.7753L196.652 16.9609H196.466Z" fill="#fff"/>
<path d="M113.946 16.8098C113.741 14.7069 112.762 12.7552 111.198 11.3342C109.634 9.91318 107.598 9.12441 105.485 9.12122C105.209 9.12122 104.929 9.13549 104.652 9.16236C102.689 9.35316 100.853 10.2201 99.4574 11.6151C98.0624 13.01 97.1952 14.8462 97.0042 16.8098C96.9773 17.0936 96.9639 17.3631 96.9639 17.6335C96.9654 19.5364 97.6045 21.384 98.7792 22.8811C99.9538 24.3783 101.596 25.4386 103.444 25.8929C105.292 26.3471 107.239 26.169 108.974 25.387C110.709 24.6051 112.132 23.2643 113.015 21.5789H109.094C108.18 22.5285 106.929 23.0804 105.611 23.1154C104.294 23.1504 103.015 22.6658 102.052 21.7662C101.968 21.6881 101.884 21.6075 101.813 21.5269C101.333 21.0253 100.953 20.4376 100.693 19.7947L100.599 19.5638H113.765C113.912 18.9306 113.986 18.2826 113.985 17.6326C113.985 17.3597 113.972 17.0835 113.946 16.8098ZM110.452 16.9609H100.312L100.332 16.7753C100.466 15.5063 101.066 14.3318 102.014 13.4778C102.963 12.6238 104.193 12.1505 105.469 12.1489C105.654 12.1488 105.838 12.1584 106.021 12.1775C107.198 12.3024 108.296 12.827 109.133 13.6637C109.969 14.5004 110.494 15.5987 110.619 16.7753L110.638 16.9609H110.452Z" fill="#fff"/>
<path d="M80.5405 16.8098C80.3355 14.707 79.3561 12.7555 77.7925 11.3346C76.229 9.91369 74.193 9.12479 72.0803 9.12122C71.8041 9.12122 71.5236 9.13549 71.2465 9.16236C69.283 9.35303 67.4467 10.22 66.0517 11.615C64.6568 13.0099 63.7898 14.8462 63.5991 16.8098C63.5714 17.0936 63.5588 17.3631 63.5588 17.6335C63.5598 19.5366 64.1985 21.3845 65.373 22.882C66.5475 24.3795 68.19 25.4402 70.0381 25.8946C71.8862 26.349 73.8332 26.1709 75.5682 25.3887C77.3032 24.6065 78.726 23.2655 79.6093 21.5798H75.6882C74.7741 22.5293 73.5232 23.0812 72.2056 23.1162C70.888 23.1513 69.6095 22.6666 68.6462 21.767C68.5622 21.6889 68.4783 21.6083 68.4069 21.5277C67.9278 21.0261 67.5481 20.4384 67.2877 19.7955L67.1936 19.5638H80.36C80.5061 18.9305 80.5799 18.2826 80.5799 17.6326C80.5799 17.3597 80.5665 17.0835 80.5405 16.8098ZM77.0459 16.9609H66.9065L66.9266 16.7753C67.0611 15.5063 67.6601 14.3317 68.6084 13.4776C69.5567 12.6236 70.7873 12.1503 72.0635 12.1489C72.2478 12.1488 72.4319 12.1584 72.6152 12.1775C73.7918 12.3024 74.8901 12.827 75.7268 13.6637C76.5635 14.5004 77.0881 15.5987 77.213 16.7753L77.2323 16.9609H77.0459Z" fill="#fff"/>
<path d="M97.1777 9.23682L92.1399 26.0296H85.4228L80.385 9.23682H84.1911L88.7822 24.54L93.3717 9.23682H97.1777Z" fill="#fff"/>
<path d="M145.845 9.23682V26.0296H142.486V19.3125H134.955V26.0296H131.597V9.23682H134.955V15.9539H142.486V9.23682H145.845Z" fill="#fff"/>
<path d="M179.832 10.9564C179.287 10.4098 178.639 9.97651 177.926 9.68138C177.213 9.38626 176.448 9.23518 175.676 9.23683H167.28V26.0287H170.638V20.9909H175.676C176.839 20.9912 177.975 20.6466 178.942 20.0009C179.909 19.3551 180.662 18.4372 181.107 17.3631C181.552 16.289 181.669 15.1072 181.442 13.9669C181.215 12.8267 180.655 11.7793 179.833 10.9572L179.832 10.9564ZM177.331 17.189C177.059 17.4623 176.735 17.6792 176.379 17.8274C176.023 17.9755 175.641 18.0519 175.255 18.0522H170.637V12.1747H175.255C175.837 12.1752 176.404 12.3479 176.887 12.671C177.37 12.9941 177.747 13.4531 177.969 13.99C178.191 14.5269 178.249 15.1176 178.135 15.6874C178.022 16.2573 177.742 16.7807 177.331 17.1915V17.189Z" fill="#fff"/>
<path d="M156.639 8.95226C154.922 8.95226 153.244 9.46126 151.817 10.4149C150.39 11.3685 149.278 12.724 148.621 14.3098C147.964 15.8957 147.792 17.6407 148.127 19.3241C148.462 21.0076 149.289 22.554 150.502 23.7677C151.716 24.9813 153.263 25.8078 154.946 26.1426C156.63 26.4773 158.375 26.3054 159.96 25.6484C161.546 24.9914 162.901 23.8789 163.855 22.4516C164.808 21.0244 165.317 19.3464 165.317 17.6299C165.317 15.3282 164.403 13.1208 162.775 11.4933C161.148 9.86575 158.94 8.95142 156.639 8.95142V8.95226ZM156.639 22.9473C155.587 23.0041 154.542 22.7476 153.635 22.2104C152.729 21.6731 152.003 20.8792 151.548 19.9291C151.093 18.9789 150.929 17.9151 151.079 16.8723C151.229 15.8295 151.684 14.8544 152.388 14.0704C153.091 13.2864 154.012 12.7287 155.032 12.4677C156.053 12.2068 157.128 12.2544 158.122 12.6045C159.115 12.9545 159.983 13.5914 160.615 14.4345C161.246 15.2776 161.614 16.2891 161.671 17.3411C161.676 17.4368 161.678 17.5325 161.678 17.6282C161.714 19.0016 161.204 20.3332 160.259 21.3305C159.314 22.3278 158.012 22.9093 156.639 22.9473V22.9473Z" fill="#fff"/>
<path d="M17.6324 0C7.89258 0 0 7.89259 0 17.6324C0 27.3722 7.89258 35.2648 17.6324 35.2648C27.3721 35.2648 35.2647 27.3722 35.2647 17.6324C35.2647 7.89259 27.3721 0 17.6324 0ZM25.1966 19.3117H22.6777C21.787 19.3117 20.9327 19.6655 20.3029 20.2954C19.673 20.9252 19.3192 21.7795 19.3192 22.6702H15.9606C15.9606 21.7795 15.6068 20.9252 14.9769 20.2954C14.3471 19.6655 13.4928 19.3117 12.6021 19.3117H10.0832C8.59404 19.3117 7.1471 18.8168 5.96981 17.9049C4.79253 16.993 3.95166 15.7157 3.57937 14.2738H7.17301C7.46778 14.7844 7.89174 15.2084 8.40229 15.5031C8.91283 15.7979 9.49198 15.9531 10.0815 15.9531H12.6004C13.5536 15.952 14.496 16.1542 15.3647 16.5463C16.2335 16.9384 17.0085 17.5113 17.6382 18.2268C18.2681 17.5115 19.0432 16.9387 19.9119 16.5466C20.7806 16.1545 21.723 15.9522 22.6761 15.9531H25.195C25.7846 15.9532 26.364 15.7981 26.8747 15.5033C27.3854 15.2086 27.8095 14.7845 28.1043 14.2738H31.7005C31.3273 15.7157 30.4858 16.9928 29.3082 17.9046C28.1306 18.8164 26.6835 19.3114 25.1941 19.3117H25.1966Z" fill="#fff"/>
</svg>
